<svg width="26" height="18" viewBox="0 0 26 18" fill="none" xmlns="http://www.w3.org/2000/svg">
<g clip-path="url(#clip0_4_6478)">
<path d="M-0.00378418 15.8568C-0.00378418 11.4696 -0.00378418 7.088 -0.00378418 2.70078C0.00749401 2.68386 0.0187722 2.66695 0.0244113 2.65003C0.199223 1.69138 1.20298 0.975217 2.39283 1.26845C5.70298 2.09176 9.00185 1.9677 12.2669 0.958299C16.0451 -0.214633 19.8515 -0.321776 23.6861 0.676344C24.6898 0.935743 25.2086 1.58988 25.2086 2.61619C25.2086 6.69326 25.2086 10.7647 25.2086 14.8418C25.2086 14.9263 25.2086 15.0109 25.203 15.0955C25.1466 16.1839 24.1485 16.9621 23.077 16.7647C22.2425 16.6068 21.4079 16.4151 20.562 16.3136C17.9793 16.0034 15.4361 16.2515 12.9549 17.0241C9.12028 18.2196 5.25749 18.3211 1.37779 17.2609C0.90411 17.1312 0.526291 16.8775 0.272532 16.4545C0.15975 16.2741 0.0864414 16.0598 -0.00378418 15.8568ZM1.80073 3.02221C1.79509 3.09552 1.78945 3.16883 1.78945 3.24213C1.78945 7.26281 1.79509 11.2778 1.79509 15.2985C1.79509 15.4677 1.8402 15.541 2.00937 15.5861C3.37404 15.9414 4.76125 16.1444 6.17103 16.1951C8.41539 16.2741 10.5864 15.885 12.7293 15.2365C15.5601 14.3737 18.4473 14.182 21.374 14.6162C22.0507 14.7177 22.7161 14.8587 23.4097 14.9827C23.4097 14.4019 23.4097 13.8211 23.4097 13.2459C23.4097 9.74965 23.4097 6.25905 23.4097 2.76281C23.4097 2.61619 23.4379 2.48086 23.2237 2.42446C21.8928 2.08048 20.5451 1.86619 19.1748 1.81544C16.9643 1.73086 14.8101 2.05792 12.6955 2.71206C9.78005 3.60868 6.81388 3.83424 3.79697 3.38311C3.13719 3.28161 2.47742 3.14063 1.80073 3.02221Z" fill="#F59E0B"/>
<g clip-path="url(#clip1_4_6478)">
<path d="M8.91858 12.2889C8.99547 12.0674 9.07236 11.846 9.14772 11.6245C9.22615 11.3923 9.29996 11.1585 9.38147 10.9279C9.39992 10.8771 9.42914 10.8248 9.46759 10.7864C10.9178 9.33313 12.3695 7.8814 13.8212 6.42814C13.832 6.41737 13.8428 6.40815 13.8489 6.40353C14.2687 6.82337 14.687 7.2432 15.1099 7.6661C15.1007 7.67687 15.0823 7.69686 15.0623 7.71685C13.6275 9.1532 12.1911 10.5895 10.7548 12.0228C10.7025 12.0751 10.6333 12.1182 10.5641 12.1412C10.1473 12.2858 9.72748 12.4227 9.30765 12.5626C9.1062 12.6303 9.02161 12.598 8.91858 12.4119C8.91858 12.3704 8.91858 12.3288 8.91858 12.2889Z" fill="#F59E0B"/>
<path d="M15.1806 5.22714C15.239 5.2702 15.3036 5.30865 15.3559 5.3594C15.6327 5.6316 15.9065 5.90841 16.1817 6.18368C16.3232 6.32516 16.3232 6.45588 16.1833 6.59429C15.948 6.82958 15.7142 7.06487 15.4851 7.29247C15.0637 6.8711 14.6454 6.4528 14.2072 6.01452C14.2179 6.00837 14.2471 5.99914 14.2671 5.98069C14.4701 5.77923 14.67 5.57469 14.8746 5.37478C14.9315 5.31941 14.9961 5.27635 15.0576 5.22714C15.0976 5.22714 15.1391 5.22714 15.1806 5.22714Z" fill="#F59E0B"/>
</g>
</g>
<defs>
<clipPath id="clip0_4_6478">
<rect width="25.2068" height="18" fill="white" transform="translate(-0.00378418 9.15527e-05)"/>
</clipPath>
<clipPath id="clip1_4_6478">
<rect width="7.36781" height="7.36627" fill="white" transform="translate(8.91858 5.22723)"/>
</clipPath>
</defs>
</svg>
