<svg width="15" height="16" viewBox="0 0 15 16" fill="none" xmlns="http://www.w3.org/2000/svg">
<path fill-rule="evenodd" clip-rule="evenodd" d="M13.04 10.25H9.43997L9.43997 13.85H13.04V10.25ZM9.43997 8.89996H13.04C13.7856 8.89996 14.39 9.50438 14.39 10.25V13.85C14.39 14.5955 13.7856 15.2 13.04 15.2H9.43997C8.69438 15.2 8.08997 14.5955 8.08997 13.85V10.25C8.08997 9.50438 8.69438 8.89996 9.43997 8.89996Z" fill="#B5B6B5"/>
<path fill-rule="evenodd" clip-rule="evenodd" d="M4.93999 2.14999H1.33999L1.33999 5.74999H4.93999V2.14999ZM13.04 2.14999H9.43999V5.74999H13.04V2.14999ZM4.93999 10.25H1.33999L1.33999 13.85H4.93999V10.25ZM4.93999 0.799988H1.33999C0.594406 0.799988 -0.0100098 1.4044 -0.0100098 2.14999V5.74999C-0.0100098 6.49557 0.594406 7.09999 1.33999 7.09999H4.93999C5.68558 7.09999 6.28999 6.49557 6.28999 5.74999V2.14999C6.28999 1.4044 5.68557 0.799988 4.93999 0.799988ZM13.04 0.799988H9.43999C8.69441 0.799988 8.08999 1.4044 8.08999 2.14999V5.74999C8.08999 6.49557 8.69441 7.09999 9.43999 7.09999H13.04C13.7856 7.09999 14.39 6.49557 14.39 5.74999V2.14999C14.39 1.4044 13.7856 0.799988 13.04 0.799988ZM1.33999 8.89999H4.93999C5.68557 8.89999 6.28999 9.5044 6.28999 10.25V13.85C6.28999 14.5956 5.68558 15.2 4.93999 15.2H1.33999C0.594406 15.2 -0.0100098 14.5956 -0.0100098 13.85V10.25C-0.0100098 9.5044 0.594406 8.89999 1.33999 8.89999Z" fill="#B5B6B5"/>
</svg>
