<svg width="27" height="28" viewBox="0 0 27 28" fill="none" xmlns="http://www.w3.org/2000/svg">
<path d="M18.3799 17.2045V14.0245C18.3784 12.6076 17.8756 11.2369 16.9605 10.1552C16.0454 9.07356 14.7769 8.35062 13.3799 8.11448V7.02448C13.3799 6.75926 13.2745 6.5049 13.087 6.31737C12.8995 6.12983 12.6451 6.02448 12.3799 6.02448C12.1147 6.02448 11.8603 6.12983 11.6728 6.31737C11.4852 6.5049 11.3799 6.75926 11.3799 7.02448V8.11448C9.98282 8.35062 8.71441 9.07356 7.79927 10.1552C6.88413 11.2369 6.38132 12.6076 6.37988 14.0245V17.2045C5.79633 17.4108 5.29088 17.7925 4.93282 18.2974C4.57476 18.8023 4.38162 19.4055 4.37988 20.0245V22.0245C4.37988 22.2897 4.48524 22.544 4.67278 22.7316C4.86031 22.9191 5.11467 23.0245 5.37988 23.0245H8.51988C8.75017 23.8718 9.25288 24.6199 9.95048 25.1532C10.6481 25.6865 11.5018 25.9755 12.3799 25.9755C13.258 25.9755 14.1117 25.6865 14.8093 25.1532C15.5069 24.6199 16.0096 23.8718 16.2399 23.0245H19.3799C19.6451 23.0245 19.8995 22.9191 20.087 22.7316C20.2745 22.544 20.3799 22.2897 20.3799 22.0245V20.0245C20.3781 19.4055 20.185 18.8023 19.8269 18.2974C19.4689 17.7925 18.9634 17.4108 18.3799 17.2045ZM8.37988 14.0245C8.37988 12.9636 8.80131 11.9462 9.55146 11.196C10.3016 10.4459 11.319 10.0245 12.3799 10.0245C13.4407 10.0245 14.4582 10.4459 15.2083 11.196C15.9585 11.9462 16.3799 12.9636 16.3799 14.0245V17.0245H8.37988V14.0245ZM12.3799 24.0245C12.0309 24.0224 11.6885 23.929 11.3867 23.7535C11.085 23.5781 10.8344 23.3268 10.6599 23.0245H14.0999C13.9254 23.3268 13.6748 23.5781 13.3731 23.7535C13.0713 23.929 12.7289 24.0224 12.3799 24.0245ZM18.3799 21.0245H6.37988V20.0245C6.37988 19.7593 6.48524 19.5049 6.67278 19.3174C6.86031 19.1298 7.11467 19.0245 7.37988 19.0245H17.3799C17.6451 19.0245 17.8995 19.1298 18.087 19.3174C18.2745 19.5049 18.3799 19.7593 18.3799 20.0245V21.0245Z" fill="#8B8B8B"/>
<rect x="14.3799" y="0.0244751" width="12" height="12" rx="6" fill="#EA4E4B"/>
<path d="M21.5703 4.25885V4.71295L19.9209 8.52448H19.0303L20.6797 4.91803H18.5557V4.25885H21.5703Z" fill="white"/>
</svg>
